<?xml version="1.0" encoding="UTF-8" standalone="no"?>
<!-- Created with Inkscape (http://www.inkscape.org/) -->

<svg
   xmlns:dc="http://purl.org/dc/elements/1.1/"
   xmlns:cc="http://creativecommons.org/ns#"
   xmlns:rdf="http://www.w3.org/1999/02/22-rdf-syntax-ns#"
   xmlns:svg="http://www.w3.org/2000/svg"
   xmlns="http://www.w3.org/2000/svg"
   xmlns:xlink="http://www.w3.org/1999/xlink"
   xmlns:sodipodi="http://sodipodi.sourceforge.net/DTD/sodipodi-0.dtd"
   xmlns:inkscape="http://www.inkscape.org/namespaces/inkscape"
   width="64"
   height="64"
   id="svg4831"
   version="1.1"
   inkscape:version="0.48.4 r9939"
   sodipodi:docname="manufacturers.svg"
   inkscape:export-filename="D:\work\pioneer\graphics_design\icons\shipyards\albr_256.png"
   inkscape:export-xdpi="360"
   inkscape:export-ydpi="360">
  <defs
     id="defs4833">
    <mask
       maskUnits="userSpaceOnUse"
       id="mask3777">
      <path
         inkscape:export-ydpi="40.330002"
         inkscape:export-xdpi="40.330002"
         inkscape:export-filename="D:\le\79\auronox_quick.png"
         inkscape:transform-center-y="-263.79758"
         inkscape:transform-center-x="-219.34212"
         sodipodi:type="arc"
         style="fill:#ffffff;fill-opacity:1;stroke:none"
         id="path3779"
         sodipodi:cx="-297.9736"
         sodipodi:cy="523.8252"
         sodipodi:rx="446.28625"
         sodipodi:ry="446.28625"
         d="m 148.31265,523.8252 a 446.28625,446.28625 0 1 1 -892.57251,0 446.28625,446.28625 0 1 1 892.57251,0 z"
         transform="matrix(0.76225237,0,0,0.77415598,651.0411,64.805588)" />
    </mask>
    <mask
       maskUnits="userSpaceOnUse"
       id="mask3781">
      <path
         inkscape:export-ydpi="40.330002"
         inkscape:export-xdpi="40.330002"
         inkscape:export-filename="D:\le\79\auronox_quick.png"
         inkscape:transform-center-y="-263.79758"
         inkscape:transform-center-x="-219.34212"
         sodipodi:type="arc"
         style="fill:#ffffff;fill-opacity:1;stroke:none"
         id="path3783"
         sodipodi:cx="-297.9736"
         sodipodi:cy="523.8252"
         sodipodi:rx="446.28625"
         sodipodi:ry="446.28625"
         d="m 148.31265,523.8252 a 446.28625,446.28625 0 1 1 -892.57251,0 446.28625,446.28625 0 1 1 892.57251,0 z"
         transform="matrix(0.76225237,0,0,0.77415598,651.0411,64.805588)" />
    </mask>
    <mask
       maskUnits="userSpaceOnUse"
       id="mask3785">
      <path
         inkscape:export-ydpi="40.330002"
         inkscape:export-xdpi="40.330002"
         inkscape:export-filename="D:\le\79\auronox_quick.png"
         inkscape:transform-center-y="-263.79758"
         inkscape:transform-center-x="-219.34212"
         sodipodi:type="arc"
         style="fill:#ffffff;fill-opacity:1;stroke:none"
         id="path3787"
         sodipodi:cx="-297.9736"
         sodipodi:cy="523.8252"
         sodipodi:rx="446.28625"
         sodipodi:ry="446.28625"
         d="m 148.31265,523.8252 a 446.28625,446.28625 0 1 1 -892.57251,0 446.28625,446.28625 0 1 1 892.57251,0 z"
         transform="matrix(0.76225237,0,0,0.77415598,651.0411,64.805588)" />
    </mask>
    <mask
       maskUnits="userSpaceOnUse"
       id="mask3789">
      <path
         inkscape:export-ydpi="40.330002"
         inkscape:export-xdpi="40.330002"
         inkscape:export-filename="D:\le\79\auronox_quick.png"
         inkscape:transform-center-y="-263.79758"
         inkscape:transform-center-x="-219.34212"
         sodipodi:type="arc"
         style="fill:#ffffff;fill-opacity:1;stroke:none"
         id="path3791"
         sodipodi:cx="-297.9736"
         sodipodi:cy="523.8252"
         sodipodi:rx="446.28625"
         sodipodi:ry="446.28625"
         d="m 148.31265,523.8252 a 446.28625,446.28625 0 1 1 -892.57251,0 446.28625,446.28625 0 1 1 892.57251,0 z"
         transform="matrix(0.76225237,0,0,0.77415598,651.0411,64.805588)" />
    </mask>
    <mask
       maskUnits="userSpaceOnUse"
       id="mask3793">
      <path
         inkscape:export-ydpi="40.330002"
         inkscape:export-xdpi="40.330002"
         inkscape:export-filename="D:\le\79\auronox_quick.png"
         inkscape:transform-center-y="-263.79758"
         inkscape:transform-center-x="-219.34212"
         sodipodi:type="arc"
         style="fill:#ffffff;fill-opacity:1;stroke:none"
         id="path3795"
         sodipodi:cx="-297.9736"
         sodipodi:cy="523.8252"
         sodipodi:rx="446.28625"
         sodipodi:ry="446.28625"
         d="m 148.31265,523.8252 a 446.28625,446.28625 0 1 1 -892.57251,0 446.28625,446.28625 0 1 1 892.57251,0 z"
         transform="matrix(0.76225237,0,0,0.77415598,651.0411,64.805588)" />
    </mask>
  </defs>
  <sodipodi:namedview
     id="base"
     pagecolor="#ffffff"
     bordercolor="#666666"
     borderopacity="1.0"
     inkscape:pageopacity="0.0"
     inkscape:pageshadow="2"
     inkscape:zoom="1.4142136"
     inkscape:cx="-251.81701"
     inkscape:cy="19.405829"
     inkscape:document-units="px"
     inkscape:current-layer="layer1"
     showgrid="false"
     inkscape:showpageshadow="false"
     borderlayer="true"
     showguides="false"
     inkscape:guide-bbox="true"
     inkscape:window-width="1858"
     inkscape:window-height="1061"
     inkscape:window-x="-4"
     inkscape:window-y="-4"
     inkscape:window-maximized="1">
    <sodipodi:guide
       orientation="0.34949309,0.93693894"
       position="60.75,13.375"
       id="guide5482" />
    <sodipodi:guide
       orientation="0.35210012,-0.93596234"
       position="37.446008,25.098117"
       id="guide5484" />
    <sodipodi:guide
       orientation="1,0"
       position="31.875,3.375"
       id="guide5486" />
    <sodipodi:guide
       orientation="0.98592211,0.16720523"
       position="43.25,-9.125"
       id="guide5488" />
    <sodipodi:guide
       orientation="0.98607095,-0.16632522"
       position="25.875,21.875"
       id="guide5490" />
  </sodipodi:namedview>
  <metadata
     id="metadata4836">
    <rdf:RDF>
      <cc:Work
         rdf:about="">
        <dc:format>image/svg+xml</dc:format>
        <dc:type
           rdf:resource="http://purl.org/dc/dcmitype/StillImage" />
        <dc:title></dc:title>
      </cc:Work>
    </rdf:RDF>
  </metadata>
  <g
     inkscape:label="Layer 1"
     inkscape:groupmode="layer"
     id="layer1"
     transform="translate(0,-988.36218)">
    <rect
       style="fill:#000026;fill-opacity:1;stroke:none"
       id="rect5794"
       width="449.71991"
       height="86.267029"
       x="-489.31787"
       y="978.11597"
       inkscape:export-filename="D:\work\pioneer\graphics_design\icons\shipyard_logos_UIkbg.png"
       inkscape:export-xdpi="90"
       inkscape:export-ydpi="90" />
    <g
       id="g4877"
       transform="translate(-393.32813,-2.6171874e-6)"
       inkscape:export-filename="D:\work\pioneer\graphics_design\icons\shipyard_logos.png"
       inkscape:export-xdpi="90"
       inkscape:export-ydpi="90">
      <path
         style="font-size:medium;font-style:normal;font-variant:normal;font-weight:normal;font-stretch:normal;text-indent:0;text-align:start;text-decoration:none;line-height:normal;letter-spacing:normal;word-spacing:normal;text-transform:none;direction:ltr;block-progression:tb;writing-mode:lr-tb;text-anchor:start;baseline-shift:baseline;color:#000000;fill:#ffffff;fill-opacity:1;fill-rule:nonzero;stroke:#ffffff;stroke-width:2;stroke-miterlimit:4;stroke-dasharray:none;marker:none;visibility:visible;display:inline;overflow:visible;enable-background:accumulate;font-family:Sans;-inkscape-font-specification:Sans"
         d="m 31.069492,993.87135 c -0.63392,0.009 -1.24601,0.19618 -1.55624,0.47541 l -7.56194,13.53074 -12.0249803,0 c -2.89857,0 -5.2625,2.3619 -5.2625,5.2605 l 0,15.8185 c 0,2.8986 2.36393,5.2606 5.2625,5.2606 l 12.0327403,0 7.55418,13.5153 c 0.19747,0.1782 0.51468,0.3215 0.88678,0.4016 0.3721,0.08 0.79609,0.096 1.18756,0.045 0.78293,-0.1029 1.38099,-0.492 1.38159,-0.9004 l 0,-13.3794 c 6.1745,-1.1841 10.76242,-6.6967 10.60845,-13.164 -0.009,-0.3954 -0.0378,-0.7864 -0.0815,-1.1721 l 8.14796,0 7.00114,-6.3976 -17.71049,0 c -1.92,-2.5358 -4.7384,-4.3488 -7.96555,-4.9695 l 0,-13.39294 c 0,-0.24843 -0.20593,-0.49439 -0.55885,-0.66751 -0.35292,-0.17313 -0.84898,-0.27112 -1.34085,-0.2639 z"
         id="path5796"
         inkscape:connector-curvature="0"
         sodipodi:nodetypes="cccssssccccccccccccsccc" />
      <rect
         y="988.36218"
         x="0"
         height="64"
         width="64"
         id="rect4869"
         style="fill:none;stroke:none" />
      <path
         sodipodi:nodetypes="cccssssccccccccccccccccccccscccccccscccsccccccccccccccccccccccscccccccccscccscc"
         inkscape:connector-curvature="0"
         id="path3032"
         d="m 31.061399,993.90082 c -0.63391,0.009 -1.246001,0.19618 -1.556239,0.47541 l -7.561939,13.53077 -12.0249735,0 c -2.898575,0 -5.262503,2.3619 -5.262503,5.2605 l 0,15.8185 c 0,2.8986 2.363928,5.2606 5.262503,5.2606 l 12.0327365,0 7.554176,13.5153 c 0.197473,0.1782 0.514689,0.3215 0.886781,0.4016 0.372101,0.08 0.796092,0.096 1.187561,0.045 0.78293,-0.1029 1.380996,-0.492 1.381595,-0.9004 l 0,-13.3794 c 6.174495,-1.1841 10.762422,-6.6967 10.608447,-13.164 -0.0094,-0.3954 -0.0378,-0.7864 -0.0815,-1.1721 l 8.147956,0 1.674612,-1.5232 -10.086469,0 c -0.07294,-0.3095 -0.155843,-0.6136 -0.250313,-0.914 l 11.266252,0 1.424611,-1.2111 -13.185074,0 c -0.142938,-0.3113 -0.391488,-0.9286 -0.557513,-1.2261 l 15.042367,0 1.672675,-1.5232 -17.710496,0 c -1.920001,-2.5358 -4.738396,-4.3488 -7.965551,-4.9695 l 0,-13.39297 c 0,-0.24843 -0.205928,-0.49439 -0.558847,-0.66751 -0.352918,-0.17313 -0.848977,-0.27112 -1.340851,-0.2639 z m -1.674612,4.50572 0,11.13626 0,3.6519 -21.6263205,0 0,-0.027 c 0,-1.8988 1.501392,-3.3535 3.3996735,-3.3977 l 14.867732,-0.3454 c 0.15459,0 0.311,-0.06 0.421074,-0.1688 0.110097,-0.1086 0.172698,-0.2626 0.172698,-0.4172 0,-0.1546 -0.06259,-0.3087 -0.172698,-0.4172 -0.110074,-0.1086 -0.266484,-0.171 -0.421074,-0.1688 l -1.95015,-0.3454 5.309065,-9.50048 z m -21.6263205,16.31136 21.8688855,0 c 0.344425,0.2691 0.949988,0.9162 1.257289,1.2578 l -23.1261745,0 z m 0,2.4372 23.8791865,0 c 0.145225,0.2874 0.275663,0.5911 0.388093,0.914 l -24.2672795,0 z m 0,2.4372 24.6398465,0 c 0.06791,0.4552 0.104388,0.9388 0.106721,1.4515 l 0,0 c 0.08861,6.3772 -5.06804,8.1788 -7.932561,8.1964 -0.01052,10e-5 -0.02053,0 -0.03104,0 -0.110206,-0.01 -0.222504,0.036 -0.302716,0.1126 -0.0802,0.077 -0.126129,0.1874 -0.126129,0.2988 0,0.1114 0.04593,0.2223 0.126129,0.2988 0.08021,0.077 0.19251,0.1169 0.302716,0.1107 0.01217,0 0.02467,0 0.03686,0 1.129984,-0.01 3.440341,-0.2885 4.806496,-1.1333 l 0,3.6636 0,11.1362 -5.30131,-9.4849 1.985083,-0.4288 c 0.13288,0 0.266305,-0.05 0.360931,-0.1436 0.09463,-0.093 0.149409,-0.2261 0.149409,-0.359 0,-0.1329 -0.05478,-0.2657 -0.149409,-0.359 -0.09463,-0.093 -0.228051,-0.1455 -0.360931,-0.1436 l -14.91042,-0.4288 c -1.8980175,-0.054 -3.3996735,-1.4989 -3.3996735,-3.3977 l 0,-9.3938 z"
         style="font-size:medium;font-style:normal;font-variant:normal;font-weight:normal;font-stretch:normal;text-indent:0;text-align:start;text-decoration:none;line-height:normal;letter-spacing:normal;word-spacing:normal;text-transform:none;direction:ltr;block-progression:tb;writing-mode:lr-tb;text-anchor:start;baseline-shift:baseline;color:#000000;fill:#000000;fill-opacity:1;fill-rule:nonzero;stroke:none;stroke-width:1;marker:none;visibility:visible;display:inline;overflow:visible;enable-background:accumulate;font-family:Sans;-inkscape-font-specification:Sans" />
    </g>
    <g
       id="g4934"
       transform="matrix(0.95317116,0,0,0.95317116,-256.45162,-10.361071)"
       inkscape:export-filename="D:\work\pioneer\graphics_design\icons\auronox.png"
       inkscape:export-xdpi="90"
       inkscape:export-ydpi="90">
      <path
         inkscape:export-ydpi="40.330002"
         inkscape:export-xdpi="40.330002"
         inkscape:export-filename="D:\le\79\auronox_quick.png"
         transform="matrix(0.07522071,0,0,0.07522049,6.4159606,1041.9598)"
         d="m 148.31265,523.8252 c 0,246.47709 -199.80916,446.28625 -446.28625,446.28625 -246.47709,0 -446.28626,-199.80916 -446.28626,-446.28625 0,-246.4771 199.80917,-446.28626 446.28626,-446.28626 246.47709,0 446.28625,199.80916 446.28625,446.28626 z"
         sodipodi:ry="446.28625"
         sodipodi:rx="446.28625"
         sodipodi:cy="523.8252"
         sodipodi:cx="-297.9736"
         id="path2987"
         style="fill:#e2d535;fill-opacity:1;stroke:none"
         sodipodi:type="arc" />
      <path
         inkscape:export-ydpi="40.330002"
         inkscape:export-xdpi="40.330002"
         inkscape:export-filename="D:\le\79\auronox_quick.png"
         inkscape:transform-center-y="-22.326649"
         inkscape:transform-center-x="-18.564202"
         sodipodi:type="arc"
         style="fill:#100b04;fill-opacity:1;stroke:none"
         id="path3796"
         sodipodi:cx="-297.9736"
         sodipodi:cy="523.8252"
         sodipodi:rx="446.28625"
         sodipodi:ry="446.28625"
         d="m 148.31265,523.8252 c 0,246.47709 -199.80916,446.28625 -446.28625,446.28625 -246.47709,0 -446.28626,-199.80916 -446.28626,-446.28625 0,-246.4771 199.80917,-446.28626 446.28626,-446.28626 246.47709,0 446.28625,199.80916 446.28625,446.28626 z"
         transform="matrix(0.06451386,0,0,0.06552114,0.13883929,1050.366)" />
      <rect
         mask="url(#mask3793)"
         inkscape:export-ydpi="40.330002"
         inkscape:export-xdpi="40.330002"
         inkscape:export-filename="D:\le\79\auronox_quick.png"
         y="438.69495"
         x="72.807968"
         height="6.7212057"
         width="719.16901"
         id="rect3789"
         style="fill:#e2d535;fill-opacity:1;stroke:none"
         transform="matrix(0.09053718,0,0,0.09053692,-56.163974,1040.5285)" />
      <path
         mask="url(#mask3789)"
         sodipodi:nodetypes="cc"
         style="fill:#e2d535;fill-opacity:1;stroke:#ffc14a;stroke-width:12.85719109;stroke-linecap:butt;stroke-linejoin:miter;stroke-miterlimit:4;stroke-opacity:1;stroke-dasharray:none"
         d="m 295.49588,805.19907 229.87112,0"
         id="path3761"
         inkscape:connector-curvature="0"
         transform="matrix(0.09053718,0,0,0.09053692,-56.163974,1040.5285)" />
      <path
         mask="url(#mask3785)"
         sodipodi:nodetypes="cc"
         inkscape:connector-curvature="0"
         id="path3763"
         d="m 152.09658,710.74992 546.90979,0"
         style="fill:#e2d535;fill-opacity:1;stroke:#ffc14a;stroke-width:46.24126434;stroke-linecap:butt;stroke-linejoin:miter;stroke-miterlimit:4;stroke-opacity:1;stroke-dasharray:none"
         transform="matrix(0.09053718,0,0,0.09053692,-56.163974,1040.5285)" />
      <path
         style="font-size:medium;font-style:normal;font-variant:normal;font-weight:normal;font-stretch:normal;text-indent:0;text-align:start;text-decoration:none;line-height:normal;letter-spacing:normal;word-spacing:normal;text-transform:none;direction:ltr;block-progression:tb;writing-mode:lr-tb;text-anchor:start;baseline-shift:baseline;color:#000000;fill:#ffc14a;fill-opacity:1;fill-rule:nonzero;stroke:none;stroke-width:69.94632721;marker:none;visibility:visible;display:inline;overflow:visible;enable-background:accumulate;font-family:Sans;-inkscape-font-specification:Sans"
         d="m 90.948481,558.5625 28.078549,69.9375 656.25422,0 0,-69.9375 z"
         mask="url(#mask3781)"
         id="path3765"
         inkscape:connector-curvature="0"
         transform="matrix(0.09053718,0,0,0.09053692,-56.163974,1040.5285)"
         sodipodi:nodetypes="ccccc" />
      <path
         mask="url(#mask3777)"
         sodipodi:nodetypes="cc"
         inkscape:connector-curvature="0"
         id="path3767"
         d="m 214.84056,767.30076 407.45154,0"
         style="fill:#e2d535;fill-opacity:1;stroke:#ffc14a;stroke-width:22.63491058;stroke-linecap:butt;stroke-linejoin:miter;stroke-miterlimit:4;stroke-opacity:1;stroke-dasharray:none"
         transform="matrix(0.09053718,0,0,0.09053692,-56.163974,1040.5285)" />
      <g
         transform="matrix(1.0491295,0,0,1.0491295,152.02761,43.620923)"
         id="g5548">
        <text
           xml:space="preserve"
           style="font-size:10.62909603px;font-style:normal;font-variant:normal;font-weight:bold;font-stretch:normal;text-align:start;line-height:125%;letter-spacing:0px;word-spacing:0px;writing-mode:lr-tb;text-anchor:start;fill:#e2d535;fill-opacity:1;stroke:none;font-family:Orbiteer;-inkscape-font-specification:Orbiteer Bold"
           x="-184.90576"
           y="988.12958"
           id="text3781"
           sodipodi:linespacing="125%"
           inkscape:export-filename="D:\le\79\auronox_quick.png"
           inkscape:export-xdpi="40.330002"
           inkscape:export-ydpi="40.330002"><tspan
             sodipodi:role="line"
             id="tspan3783"
             x="-184.90576"
             y="988.12958">RNX</tspan></text>
      </g>
    </g>
    <g
       id="g4963"
       transform="translate(-482.95392,-2.6171874e-6)"
       inkscape:export-filename="D:\work\pioneer\graphics_design\icons\shipyard_logos.png"
       inkscape:export-xdpi="90"
       inkscape:export-ydpi="90">
      <rect
         y="988.36218"
         x="0"
         height="64"
         width="64"
         id="rect4951"
         style="fill:none;stroke:none" />
      <text
         sodipodi:linespacing="125%"
         id="text4953"
         y="1034.5568"
         x="7.7675438"
         style="font-size:60.20564269999999900px;font-style:normal;font-variant:normal;font-weight:normal;font-stretch:normal;text-align:start;line-height:125%;letter-spacing:0px;word-spacing:0px;writing-mode:lr-tb;text-anchor:start;fill:#ffffff;fill-opacity:1;stroke:none;font-family:Adobe Garamond Pro;-inkscape-font-specification:Adobe Garamond Pro"
         xml:space="preserve"><tspan
           y="1034.5568"
           x="7.7675438"
           id="tspan4955"
           sodipodi:role="line">H</tspan></text>
      <text
         xml:space="preserve"
         style="font-size:13.82047272000000000px;font-style:normal;font-variant:normal;font-weight:normal;font-stretch:normal;line-height:125%;letter-spacing:0px;word-spacing:0px;fill:#ffffff;fill-opacity:1;stroke:none;font-family:Adobe Arabic;-inkscape-font-specification:Adobe Arabic"
         x="32.206425"
         y="1045.9094"
         id="text4957"
         sodipodi:linespacing="125%"><tspan
           style="font-size:13.82047272000000000px;font-style:normal;font-variant:normal;font-weight:normal;font-stretch:normal;text-align:center;line-height:125%;writing-mode:lr-tb;text-anchor:middle;fill:#ffffff;font-family:Adobe Garamond Pro;-inkscape-font-specification:Adobe Garamond Pro"
           sodipodi:role="line"
           id="tspan4959"
           x="32.206425"
           y="1045.9094">HABER</tspan></text>
    </g>
    <g
       id="g5558" />
    <g
       id="g5786"
       transform="translate(-124.45081,0.99997454)"
       inkscape:export-filename="D:\work\pioneer\graphics_design\icons\shipyard_logos.png"
       inkscape:export-xdpi="90"
       inkscape:export-ydpi="90">
      <text
         sodipodi:linespacing="125%"
         id="text5570"
         y="1019.4669"
         x="5.1328168"
         style="font-size:21.07801819px;font-style:oblique;font-variant:normal;font-weight:normal;font-stretch:normal;text-align:start;line-height:125%;letter-spacing:0px;word-spacing:0px;writing-mode:lr-tb;text-anchor:start;fill:#ffffff;fill-opacity:1;stroke:none;font-family:FuturaTOTExtBol;-inkscape-font-specification:FuturaTOTExtBol Oblique"
         xml:space="preserve"><tspan
           y="1019.4669"
           x="5.1328168"
           id="tspan5572"
           sodipodi:role="line">ALBR</tspan></text>
      <rect
         transform="matrix(1,0,-0.11921837,0.99286806,0,0)"
         y="1029.4517"
         x="127.73401"
         height="11.414551"
         width="35.497715"
         id="rect5574"
         style="fill:#1f4e79;fill-opacity:1;stroke:none" />
      <rect
         style="fill:#1f4e79;fill-opacity:1;stroke:none"
         id="rect5576"
         width="5.6889095"
         height="11.414551"
         x="166.57863"
         y="1029.4517"
         transform="matrix(1,0,-0.11921837,0.99286806,0,0)" />
      <rect
         transform="matrix(1,0,-0.11921837,0.99286806,0,0)"
         y="1029.4517"
         x="175.52127"
         height="11.414551"
         width="3.1737816"
         id="rect5578"
         style="fill:#1f4e79;fill-opacity:1;stroke:none" />
      <rect
         style="fill:#1f4e79;fill-opacity:1;stroke:none"
         id="rect5580"
         width="0.93809295"
         height="11.414551"
         x="181.66934"
         y="1029.4517"
         transform="matrix(1,0,-0.11921837,0.99286806,0,0)" />
    </g>
    <g
       transform="translate(-214.09693,2.26083)"
       id="g5702"
       inkscape:export-filename="D:\work\pioneer\graphics_design\icons\shipyard_logos.png"
       inkscape:export-xdpi="90"
       inkscape:export-ydpi="90">
      <path
         sodipodi:end="6.6887897"
         sodipodi:start="2.6819936"
         transform="matrix(0.95343754,0,0,0.95343754,1.4941473,983.90241)"
         d="M 9.2706659,53.990338 C 3.0343064,41.390346 8.1930494,26.120467 20.793041,19.884107 c 12.599991,-6.236359 27.869871,-1.077616 34.10623,11.522375 3.308362,6.684241 3.518961,14.483101 0.576159,21.336147 L 32.084969,42.69841 z"
         sodipodi:ry="25.455845"
         sodipodi:rx="25.455845"
         sodipodi:cy="42.69841"
         sodipodi:cx="32.084969"
         id="path5546"
         style="fill:#f4ff80;fill-opacity:1;stroke:none"
         sodipodi:type="arc" />
      <g
         style="fill:#3dbb8d;fill-opacity:1;stroke:#45a180;stroke-opacity:1"
         transform="matrix(1.0730098,0,0,1.0730098,-2.0766088,-72.335969)"
         id="g5539">
        <path
           style="fill:#90d0a3;fill-opacity:1;stroke:#90d0a3;stroke-width:0.9319579;stroke-opacity:1"
           d="m 52.725237,1037.7907 c -2.240964,1.1498 -4.989992,0.2654 -6.139968,-1.9757 -1.149975,-2.241 -0.265426,-4.99 1.97559,-6.14 3.429705,-1.7599 8.825041,-1.9744 10.981325,1.925 -4.709055,1.5194 -4.575826,5.0406 -6.816947,6.1907 z"
           id="path5527"
           inkscape:connector-curvature="0"
           sodipodi:nodetypes="ssscs"
           inkscape:transform-center-y="-0.65073783"
           inkscape:transform-center-x="-2.7598337" />
        <path
           inkscape:transform-center-x="-2.3022496"
           inkscape:transform-center-y="-2.8017315"
           sodipodi:nodetypes="ssscs"
           inkscape:connector-curvature="0"
           id="path5529"
           d="m 52.875671,1032.4685 c -2.189191,3.3116 -6.649288,4.222 -9.961853,2.0334 -3.312565,-2.1886 -4.223174,-6.6475 -2.033992,-9.9592 3.350396,-5.0683 10.595842,-9.5338 16.573099,-5.8457 -5.293793,5.727 -2.388006,10.4597 -4.577254,13.7715 z"
           style="fill:#42ac61;fill-opacity:1;stroke:#42ac61;stroke-width:0.9319579;stroke-opacity:1" />
        <path
           style="fill:#2f8a4a;fill-opacity:1;stroke:#2f8a4a;stroke-width:0.9319579;stroke-opacity:1"
           d="m 46.988844,1028.3074 c -1.622951,4.0484 -6.229173,6.0147 -10.288218,4.3915 -4.059067,-1.6231 -6.033885,-6.221 -4.410945,-10.2695 2.48383,-6.1961 9.301582,-12.6047 16.567681,-9.9567 -4.432527,7.3345 -0.245527,11.786 -1.868518,15.8347 z"
           id="path5531"
           inkscape:connector-curvature="0"
           sodipodi:nodetypes="ssscs"
           inkscape:transform-center-y="-3.8064488"
           inkscape:transform-center-x="-1.0666721" />
      </g>
      <use
         transform="matrix(-1,0,0,1,63.749999,0)"
         height="64"
         width="64"
         inkscape:transform-center-y="-4.4290738"
         inkscape:transform-center-x="16.322571"
         id="use5544"
         xlink:href="#g5539"
         y="0"
         x="0" />
      <path
         sodipodi:nodetypes="cccccccccccc"
         inkscape:connector-curvature="0"
         style="fill:#ffffff;stroke:none"
         d="m 32,995.8039 -5.5625,36.2925 -8.28125,-6.7404 3.96875,10.9567 -19.125,6.3244 21.34375,0 15.25,0 21.40625,0 -19.3125,-6.4076 3.9375,-10.8735 -8.09375,6.574 z"
         id="path5509" />
      <path
         sodipodi:nodetypes="cccccccccccccccccccccccccc"
         inkscape:connector-curvature="0"
         id="path4970"
         d="m 26.09375,1031.2088 -9,-7.323 4.40625,12.1495 -18.6875,6.1858 -2.57812501,0.8598 24.10937501,0 15.25,0 24.21258,0 -2.61883,-0.8598 -18.875,-6.269 4.375,-12.0663 -8.8125,7.1566 L 32,993.1218 z M 32,998.4668 l 3.817481,36.7437 6.057519,-5.8046 -2.8125,7.101 17.15625,5.6864 -16.625,0 -15.25,0 -16.5625,0 16.96875,-5.6032 -4.1875,-8.5157 7.588769,7.0672 z"
         style="font-size:medium;font-style:normal;font-variant:normal;font-weight:normal;font-stretch:normal;text-indent:0;text-align:start;text-decoration:none;line-height:normal;letter-spacing:normal;word-spacing:normal;text-transform:none;direction:ltr;block-progression:tb;writing-mode:lr-tb;text-anchor:start;baseline-shift:baseline;color:#000000;fill:#000000;fill-opacity:1;fill-rule:nonzero;stroke:none;stroke-width:1;marker:none;visibility:visible;display:inline;overflow:visible;enable-background:accumulate;font-family:Sans;-inkscape-font-specification:Sans" />
    </g>
    <g
       inkscape:export-ydpi="90"
       inkscape:export-xdpi="90"
       inkscape:export-filename="D:\work\pioneer\graphics_design\icons\shipyard_logos.png"
       transform="translate(-482.95392,97.580731)"
       id="g3048">
      <rect
         style="fill:none;stroke:none"
         id="rect3050"
         width="64"
         height="64"
         x="0"
         y="988.36218" />
      <text
         xml:space="preserve"
         style="font-size:60.2056427px;font-style:normal;font-variant:normal;font-weight:normal;font-stretch:normal;text-align:start;line-height:125%;letter-spacing:0px;word-spacing:0px;writing-mode:lr-tb;text-anchor:start;fill:#000000;fill-opacity:1;stroke:none;font-family:Adobe Garamond Pro;-inkscape-font-specification:Adobe Garamond Pro"
         x="7.7675438"
         y="1034.5568"
         id="text3052"
         sodipodi:linespacing="125%"><tspan
           sodipodi:role="line"
           id="tspan3054"
           x="7.7675438"
           y="1034.5568">H</tspan></text>
      <text
         sodipodi:linespacing="125%"
         id="text3056"
         y="1045.9094"
         x="32.206425"
         style="font-size:13.82047272px;font-style:normal;font-variant:normal;font-weight:normal;font-stretch:normal;line-height:125%;letter-spacing:0px;word-spacing:0px;fill:#000000;fill-opacity:1;stroke:none;font-family:Adobe Arabic;-inkscape-font-specification:Adobe Arabic"
         xml:space="preserve"><tspan
           y="1045.9094"
           x="32.206425"
           id="tspan3058"
           sodipodi:role="line"
           style="font-size:13.82047272px;font-style:normal;font-variant:normal;font-weight:normal;font-stretch:normal;text-align:center;line-height:125%;writing-mode:lr-tb;text-anchor:middle;fill:#000000;font-family:Adobe Garamond Pro;-inkscape-font-specification:Adobe Garamond Pro">HABER</tspan></text>
    </g>
    <g
       inkscape:export-ydpi="90"
       inkscape:export-xdpi="90"
       inkscape:export-filename="D:\work\pioneer\graphics_design\icons\shipyard_logos.png"
       transform="translate(-124.45081,97.166494)"
       id="g3060">
      <text
         xml:space="preserve"
         style="font-size:21.07801819px;font-style:oblique;font-variant:normal;font-weight:normal;font-stretch:normal;text-align:start;line-height:125%;letter-spacing:0px;word-spacing:0px;writing-mode:lr-tb;text-anchor:start;fill:#000000;fill-opacity:1;stroke:none;font-family:FuturaTOTExtBol;-inkscape-font-specification:FuturaTOTExtBol Oblique"
         x="5.1328168"
         y="1019.4669"
         id="text3062"
         sodipodi:linespacing="125%"><tspan
           sodipodi:role="line"
           id="tspan3064"
           x="5.1328168"
           y="1019.4669">ALBR</tspan></text>
      <rect
         style="fill:#1f4e79;fill-opacity:1;stroke:none"
         id="rect3066"
         width="35.497715"
         height="11.414551"
         x="127.73401"
         y="1029.4517"
         transform="matrix(1,0,-0.11921837,0.99286806,0,0)" />
      <rect
         transform="matrix(1,0,-0.11921837,0.99286806,0,0)"
         y="1029.4517"
         x="166.57863"
         height="11.414551"
         width="5.6889095"
         id="rect3068"
         style="fill:#1f4e79;fill-opacity:1;stroke:none" />
      <rect
         style="fill:#1f4e79;fill-opacity:1;stroke:none"
         id="rect3070"
         width="3.1737816"
         height="11.414551"
         x="175.52127"
         y="1029.4517"
         transform="matrix(1,0,-0.11921837,0.99286806,0,0)" />
      <rect
         transform="matrix(1,0,-0.11921837,0.99286806,0,0)"
         y="1029.4517"
         x="181.66934"
         height="11.414551"
         width="0.93809295"
         id="rect3072"
         style="fill:#1f4e79;fill-opacity:1;stroke:none" />
    </g>
  </g>
</svg>
