<?xml version="1.0" encoding="UTF-8" standalone="no"?>
<!-- Created with Inkscape (http://www.inkscape.org/) -->

<svg
   xmlns:dc="http://purl.org/dc/elements/1.1/"
   xmlns:cc="http://creativecommons.org/ns#"
   xmlns:rdf="http://www.w3.org/1999/02/22-rdf-syntax-ns#"
   xmlns:svg="http://www.w3.org/2000/svg"
   xmlns="http://www.w3.org/2000/svg"
   xmlns:sodipodi="http://sodipodi.sourceforge.net/DTD/sodipodi-0.dtd"
   xmlns:inkscape="http://www.inkscape.org/namespaces/inkscape"
   id="svg2"
   version="1.1"
   inkscape:version="0.91pre2 r13516"
   width="744"
   height="1000"
   viewBox="0 0 744 1000"
   sodipodi:docname="storeria_silhouette_3.svg"
   inkscape:export-filename="D:\work\pioneer\shipyards\OPLI_barnard\torham\storeria2\Storeria_silhouette.png"
   inkscape:export-xdpi="90"
   inkscape:export-ydpi="90">
  <metadata
     id="metadata8">
    <rdf:RDF>
      <cc:Work
         rdf:about="">
        <dc:format>image/svg+xml</dc:format>
        <dc:type
           rdf:resource="http://purl.org/dc/dcmitype/StillImage" />
        <dc:title></dc:title>
      </cc:Work>
    </rdf:RDF>
  </metadata>
  <defs
     id="defs6" />
  <sodipodi:namedview
     pagecolor="#ffffff"
     bordercolor="#666666"
     borderopacity="1"
     objecttolerance="10"
     gridtolerance="10"
     guidetolerance="10"
     inkscape:pageopacity="0"
     inkscape:pageshadow="2"
     inkscape:window-width="1858"
     inkscape:window-height="1061"
     id="namedview4"
     showgrid="false"
     inkscape:zoom="0.52974186"
     inkscape:cx="296.64307"
     inkscape:cy="634.59343"
     inkscape:window-x="-4"
     inkscape:window-y="-4"
     inkscape:window-maximized="1"
     inkscape:current-layer="svg2" />
  <g
     id="g4147"
     transform="matrix(1.1878921,0,0,1.1878921,-72.667262,-20.531251)">
    <path
       inkscape:connector-curvature="0"
       id="path4139"
       d="m 280.5,809.4937 c -16.1914,-6.695 -25.11421,-10.89486 -25.32415,-11.91976 -0.18862,-0.92084 -2.1363,-2.03879 -4.65838,-2.67386 -2.84544,-0.71649 -4.50529,-1.74551 -4.83223,-2.99572 C 245.22243,790.13459 244.08518,790 229.59362,790 L 214,790 l 0,-4.35754 0,-4.35755 6.14669,-0.64245 C 223.52737,780.28911 230.67489,780 236.03006,780 c 8.78471,0 9.78612,-0.18908 10.2424,-1.93388 0.33698,-1.28862 1.7536,-2.16798 4.24568,-2.6355 2.26743,-0.42537 3.91471,-1.36982 4.18377,-2.39871 0.30097,-1.15094 8.86795,-5.13435 26.62094,-12.37801 L 307.5,749.97297 l 64.5,0.0143 64.5,0.0143 25.44766,10.4174 c 18.63939,7.63032 25.64384,10.94773 26.18094,12.39966 0.49977,1.35101 2.06793,2.20775 4.92434,2.69033 2.90165,0.49023 4.34323,1.29001 4.68569,2.59957 0.44245,1.69194 1.52182,1.89149 10.23131,1.89149 5.35517,0 12.52531,0.29147 15.93365,0.64771 l 6.19697,0.64771 -0.30028,4.10229 L 529.5,789.5 l -14.91096,0.27765 c -14.40669,0.26827 -14.98845,0.36127 -17.20225,2.75 -1.26021,1.35979 -3.19457,2.47235 -4.29857,2.47235 -1.10401,0 -3.03799,1.11147 -4.29775,2.46993 -1.46714,1.58209 -11.16138,6.07532 -26.96899,12.5 L 437.14296,820 371.32148,819.91549 305.5,819.83098 280.5,809.4937 Z M 397.73911,638.25 c -0.28099,-1.5125 -1.79293,-11.1875 -3.35987,-21.5 l -2.84898,-18.75 -3.26513,0 C 386.46931,598 385,598.45932 385,599.02071 c 0,0.6695 -6.9463,0.92756 -20.18839,0.75 L 344.62322,599.5 338.25107,574.02279 c -3.50469,-14.01247 -6.47526,-25.58031 -6.60127,-25.70633 -0.12601,-0.12601 -3.66808,0.83193 -7.87125,2.12875 -4.20318,1.29683 -7.89851,2.1015 -8.21185,1.78815 -0.31334,-0.31334 -1.58154,-0.0428 -2.81821,0.60117 C 308.68931,554.94832 295.70585,559 292.99151,559 c -1.462,0 -2.99038,0.3375 -3.39641,0.75 -0.40603,0.4125 -4.86853,2.1 -9.91667,3.75 l -9.17843,3 -0.25092,14.5 c -0.14892,8.60588 -0.72572,15.4146 -1.41898,16.75 l -1.16806,2.25 -31.42464,0 c -30.58364,0 -31.43864,-0.0535 -31.94765,-2 -0.28766,-1.1 -0.92053,-2 -1.40638,-2 -0.48585,0 -0.88337,0.9 -0.88337,2 0,1.92575 -0.66667,2 -17.95785,2 l -17.95784,0 -2.63718,4.5 -2.63717,4.5 -8.16226,0 -8.16226,0 -2.7181,-4.5 C 140.27238,602.025 138.36316,600 137.52462,600 136.21076,600 136,597.31362 136,580.56739 c 0,-18.76039 -0.0715,-19.45529 -2.06571,-20.08824 -1.13613,-0.3606 -3.61113,-2.01254 -5.5,-3.67098 L 125,553.79282 l 0,-11.68241 0,-11.68241 4.18178,-3.214 c 2.29999,-1.7677 4.77499,-3.214 5.5,-3.214 0.99765,0 1.31822,-2.29038 1.31822,-9.41821 0,-5.18002 0.25184,-10.0745 0.55964,-10.87662 0.36305,-0.94609 -0.2517,-1.66551 -1.75,-2.04796 -1.2703,-0.32424 -3.99714,-1.98752 -6.05964,-3.69618 l -3.75,-3.10664 0,-11.73914 0,-11.73913 3.19767,-2.43806 c 1.75872,-1.34093 4.79622,-3.19219 6.75,-4.1139 1.95378,-0.92171 2.98983,-1.70921 2.30233,-1.75 -0.91194,-0.0541 -1.25,-2.78533 -1.25,-10.09891 0,-9.5485 -0.10957,-10.06641 -2.30637,-10.90163 -1.2685,-0.48229 -3.7435,-2.08615 -5.5,-3.56414 L 125,435.82221 l 0,-11.74374 0,-11.74374 3.75,-2.98463 c 2.0625,-1.64154 4.5375,-3.27773 5.5,-3.63598 1.58255,-0.58902 1.75,-2.47241 1.75,-19.68274 C 136,370.71744 136.2638,367 137.35052,367 c 0.74279,0 2.74921,-2.25 4.4587,-5 l 3.10817,-5 7.83123,0 7.83122,0 2.92016,5 2.92016,5 17.78992,0 c 15.1466,0 17.78992,0.22288 17.78992,1.5 0,0.825 0.45,1.5 1,1.5 0.55,0 1,-0.675 1,-1.5 0,-1.30166 4.1746,-1.5 31.57143,-1.5 25.74931,0 31.82997,0.25854 32.97342,1.402 1.05249,1.05248 1.47095,5.1862 1.67858,16.58157 l 0.27657,15.17958 8.77002,2.81912 c 4.82352,1.55051 9.54852,3.16025 10.5,3.57718 0.95149,0.41694 2.09758,0.67659 2.54688,0.57701 1.37669,-0.30513 20.56707,5.86678 21.14397,6.80022 0.29761,0.48156 1.32817,0.67693 2.29013,0.43416 0.96195,-0.24277 4.899,0.63042 8.749,1.94042 l 7,2.38182 6.58992,-25.59654 6.58992,-25.59654 20.41008,0 c 11.22554,0 21.73894,0.225 23.36311,0.5 l 2.95303,0.5 3.21051,-20.3035 c 1.76578,-11.16693 3.4603,-20.95443 3.76559,-21.75 C 398.78841,325.38783 400.6968,325 405.5,325 c 7.28219,0 8.57156,1.10355 6.8549,5.86701 -1.14768,3.18463 0.21284,11.96447 2.19675,14.17634 1.099,1.22528 4.44835,18.50535 4.44835,22.95007 0,0.55362 0.9,1.00658 2,1.00658 1.1,0 2,-0.37813 2,-0.84028 0,-1.06431 55.31764,-2.28744 59.92206,-1.32495 3.00433,0.62802 3.62329,1.31686 5.07048,5.64292 1.53997,4.60342 1.94816,5.00404 6.20506,6.08999 6.47905,1.65282 6.8024,2.00427 6.8024,7.39351 0,4.46826 -0.22925,4.92308 -2.96159,5.87558 l -2.96159,1.03241 1.55559,4.56541 c 1.25501,3.68323 2.00946,4.56541 3.90443,4.56541 5.7,0 11.21083,5.59017 10.28785,10.43598 -0.23527,1.2352 1.19005,2.36276 5.17531,4.09419 4.45463,1.93534 7.25813,2.39714 14.75,2.42967 5.47323,0.0238 9.25,0.44846 9.25,1.04016 0,0.55 -2.55,1 -5.66667,1 -3.11666,0 -5.42209,0.24457 -5.12317,0.54349 0.29892,0.29892 20.6751,8.8251 45.2804,18.94707 24.6053,10.12197 44.91529,18.58196 45.13331,18.79997 0.21801,0.21802 0.50433,8.31945 0.63626,18.00318 l 0.23987,17.60679 3,0.38971 3,0.38972 -3.25,0.16003 c -2.15109,0.10593 -3.25,0.66723 -3.25,1.66004 0,1.25531 2.32454,1.52736 14.25,1.66771 l 14.25,0.16772 -10.5,0.70975 c -5.775,0.39036 -12.1875,0.76489 -14.25,0.83228 -3.53305,0.11545 -3.75156,0.31057 -3.77693,3.37254 l -0.0269,3.25 -40.22307,16.4195 c -22.12269,9.03073 -48.86344,19.98775 -59.4239,24.34894 l -19.20082,7.92942 -2.63193,7.65107 c -1.44757,4.20809 -2.82379,8.11337 -3.05829,8.67839 -0.23449,0.56503 0.92775,1.53844 2.58276,2.16314 2.79794,1.0561 3.00911,1.48998 3.00911,6.18253 l 0,5.04673 -4.25,1.13298 c -6.41262,1.7095 -6.90965,2.13541 -9.0425,7.74862 L 485.73216,600 454.36608,600 C 434.12203,600 423,599.64541 423,599 c 0,-0.55 -0.9,-1 -2,-1 -1.1,0 -2,0.22796 -2,0.50658 0,4.04977 -3.41838,21.30176 -4.44835,22.45007 -1.98391,2.21187 -3.34443,10.99171 -2.19675,14.17634 1.73687,4.81952 0.45166,5.86701 -7.19852,5.86701 -6.74371,0 -6.91841,-0.0648 -7.41727,-2.75 z M 209.13994,247.26242 c -3.2793,-0.29195 -4.48563,-0.86834 -4.86663,-2.3253 C 203.60891,242.39647 202,242.44097 202,245 c 0,1.9596 -0.66667,2 -33,2 l -33,0 0,-7.83948 c 0,-7.18706 -0.18951,-7.92584 -2.2771,-8.87701 -1.2524,-0.57063 -3.7274,-2.25786 -5.5,-3.7494 l -3.2229,-2.7119 0,-11.74374 0,-11.74374 3.75,-2.98463 c 2.0625,-1.64154 4.51818,-3.27032 5.45707,-3.6195 1.37153,-0.51009 1.76466,-2.16764 2,-8.43274 L 136.5,177.5 l 32.75,-0.26366 c 32.2447,-0.2596 32.75,-0.2326 32.75,1.75 0,2.60107 1.61061,2.61068 2.28975,0.0137 0.50909,-1.94676 1.36401,-2 32.11663,-2 30.92695,0 31.59362,0.0422 31.59362,2 0,1.1 0.45,2 1,2 0.55613,0 1,2.67713 1,6.03138 0,4.00329 0.4339,6.19789 1.29038,6.52656 0.70971,0.27234 15.78485,0.59571 33.50031,0.71861 36.29987,0.25182 34.7079,0.64173 29.70931,-7.27655 -1.375,-2.17814 -2.5,-5.31713 -2.5,-6.97553 l 0,-3.01527 89.20096,0.0129 c 86.63793,0.0125 89.39629,0.0711 95.99938,2.03756 3.73913,1.11356 8.2612,2.23008 10.04904,2.48116 1.78784,0.25107 5.16061,0.72913 7.49505,1.06234 2.33444,0.33322 4.01375,0.97909 3.73181,1.43528 -0.5681,0.9192 3.28158,2.13408 44.52376,14.05072 28.1542,8.13496 30.24193,8.66388 34.84362,8.82751 1.45935,0.0519 2.54096,0.83795 2.86663,2.08333 0.4592,1.75599 1.45434,2.02436 8.15638,2.19964 4.19835,0.1098 8.98337,0.11716 10.63337,0.0163 4.12755,-0.25219 7.5,0.60619 7.5,1.90896 0,0.74291 -2.61065,0.89771 -8.25,0.48919 -4.5375,-0.3287 -8.925,-0.63035 -9.75,-0.67033 -2.81007,-0.13616 -7.49733,1.37409 -8.50328,2.73979 -0.5518,0.74914 -2.8018,1.62252 -5,1.94084 C 613.29852,217.94275 589,224.64995 561.5,232.52931 l -50,14.32611 -22.06873,0.70261 c -12.1378,0.38643 -28.2253,0.37286 -35.75,-0.0302 C 441.17031,246.85779 440,246.63279 440,244.89756 440,243.8539 439.55,243 439,243 c -0.55,0 -1,0.9 -1,2 0,1.97484 -0.66667,2 -53,2 l -53,0 0.005,-2.75 c 0.003,-1.5125 1.11378,-4.55 2.46879,-6.75 4.15355,-6.74369 3.89189,-6.98474 -7.72306,-7.11466 -5.63797,-0.0631 -10.92585,-0.13665 -11.75085,-0.16352 -0.825,-0.0269 -5.91588,0.16878 -11.31307,0.43476 -5.9003,0.29079 -10.29971,0.0798 -11.03354,-0.52928 -0.76546,-0.63527 -1.76718,-0.66712 -2.68693,-0.0854 -0.80655,0.51012 -5.62896,0.93438 -10.71646,0.9428 L 270,231 l 0,6 c 0,3.33333 -0.44444,6 -1,6 -0.55,0 -1,0.83213 -1,1.84918 0,1.62831 -1.16451,1.92629 -9.75,2.49482 -10.01185,0.66299 -41.33112,0.61096 -49.11006,-0.0816 z"
       style="fill:#4d4d4d;fill-opacity:1" />
    <text
       sodipodi:linespacing="125%"
       id="text4141"
       y="86.834747"
       x="370.7854"
       style="font-style:normal;font-weight:normal;font-size:40px;line-height:125%;font-family:sans-serif;text-align:center;letter-spacing:0px;word-spacing:0px;text-anchor:middle;fill:#4d4d4d;fill-opacity:1;stroke:none;stroke-width:1px;stroke-linecap:butt;stroke-linejoin:miter;stroke-opacity:1"
       xml:space="preserve"><tspan
         y="86.834747"
         x="370.7854"
         id="tspan4143"
         sodipodi:role="line">Storeria</tspan><tspan
         style="font-size:25px;fill:#4d4d4d;fill-opacity:1"
         id="tspan4145"
         y="121.88351"
         x="370.7854"
         sodipodi:role="line">Medium Freighter</tspan></text>
  </g>
</svg>
