<?xml version="1.0" encoding="UTF-8" standalone="no"?>
<!-- Created with Inkscape (http://www.inkscape.org/) -->

<svg
   xmlns:dc="http://purl.org/dc/elements/1.1/"
   xmlns:cc="http://creativecommons.org/ns#"
   xmlns:rdf="http://www.w3.org/1999/02/22-rdf-syntax-ns#"
   xmlns:svg="http://www.w3.org/2000/svg"
   xmlns="http://www.w3.org/2000/svg"
   xmlns:sodipodi="http://sodipodi.sourceforge.net/DTD/sodipodi-0.dtd"
   xmlns:inkscape="http://www.inkscape.org/namespaces/inkscape"
   id="svg2"
   version="1.1"
   inkscape:version="0.48.4 r9939"
   width="1124"
   height="2048"
   sodipodi:docname="silluethe.png">
  <metadata
     id="metadata8">
    <rdf:RDF>
      <cc:Work
         rdf:about="">
        <dc:format>image/svg+xml</dc:format>
        <dc:type
           rdf:resource="http://purl.org/dc/dcmitype/StillImage" />
        <dc:title></dc:title>
      </cc:Work>
    </rdf:RDF>
  </metadata>
  <defs
     id="defs6" />
  <sodipodi:namedview
     pagecolor="#ffffff"
     bordercolor="#666666"
     borderopacity="1"
     objecttolerance="10"
     gridtolerance="10"
     guidetolerance="10"
     inkscape:pageopacity="0"
     inkscape:pageshadow="2"
     inkscape:window-width="1862"
     inkscape:window-height="1061"
     id="namedview4"
     showgrid="false"
     inkscape:zoom="0.32593203"
     inkscape:cx="1071.4727"
     inkscape:cy="903.64272"
     inkscape:window-x="1362"
     inkscape:window-y="-4"
     inkscape:window-maximized="1"
     inkscape:current-layer="svg2" />
  <path
     style="fill:#000000"
     d="m 558.10799,1922.1329 c -6.03329,-1.049 -9.74505,-2.1931 -10.3792,-3.1995 -0.54295,-0.8616 -3.96654,-9.5978 -7.60798,-19.4138 l -6.62081,-17.8471 -15,-6.6248 c -13.27764,-5.864 -17.29648,-8.2768 -35,-21.0125 -18.48968,-13.3014 -53.6709,-41.3731 -96.48709,-76.9889 -28.41386,-23.6355 -51.50192,-47.2157 -56.06946,-57.2645 -1.27775,-2.8111 -2.24382,-3.259 -25.44345,-11.7956 -4.95,-1.8214 -9.44306,-3.704 -9.98459,-4.1835 -0.54152,-0.4795 -1.73826,-5.5946 -2.65943,-11.3667 -1.58432,-9.9277 -1.57821,-11.0903 0.11308,-21.5106 0.98336,-6.0586 1.9551,-11.1634 2.15943,-11.3439 0.20433,-0.1804 5.32151,-2.1402 11.37151,-4.3549 22.70717,-8.3126 22.25656,-8.0927 24.65044,-12.0304 3.69022,-6.07 16.20648,-21.2955 22.48569,-27.353 7.66136,-7.3907 22.47786,-18.8526 38.21652,-29.5637 16.45685,-11.1998 33.35131,-24.2644 61.10357,-47.2517 34.37462,-28.4726 71.8221,-56.2357 78.86856,-58.4722 1.33036,-0.4222 3.75759,-5.7172 8.62785,-18.8216 3.7272,-10.0287 7.14036,-18.6267 7.5848,-19.1067 0.44444,-0.4801 5.63041,-1.6467 11.52438,-2.5926 9.99413,-1.6039 11.3977,-1.6102 20.82725,-0.094 5.56102,0.8939 10.60819,1.9343 11.21593,2.3119 0.60775,0.3776 4.13849,8.9626 7.8461,19.0778 6.52118,17.7912 6.86032,18.4475 10.39501,20.1149 10.02,4.727 47.866,32.8857 78.6539,58.5213 25.65571,21.3622 44.60764,36.0462 58.5,45.326 15.32647,10.2376 34.46241,25.4467 42.60672,33.8634 8.02634,8.2948 17.286,19.8025 19.71751,24.5045 1.71758,3.3214 1.09102,3.0252 25.67577,12.139 l 10.5,3.8924 1.74255,10.4043 c 1.63233,9.7462 1.63922,11.0999 0.10893,21.4042 -0.89849,6.05 -2.02352,11.5002 -2.50006,12.1115 -0.47654,0.6113 -8.12556,3.7613 -16.99783,7 -12.49928,4.5627 -16.48298,6.4514 -17.69295,8.3885 -7.90956,12.6629 -29.92049,35.4751 -52.18903,54.0888 -37.02399,30.9475 -82.2257,67.0831 -100.3823,80.2487 -18.9117,13.713 -22.34155,15.7907 -35.87828,21.7335 l -14.96759,6.5709 -7.0392,18.9291 c -3.87157,10.4109 -7.19587,19.1235 -7.38735,19.3613 -0.42193,0.5239 -21.20085,4.0027 -23.31689,3.9037 -0.825,-0.039 -5.72641,-0.805 -10.89201,-1.7031 z M 206.52389,1290.75 c -0.75876,-1.7875 -1.07454,-3.5339 -0.70173,-3.8808 0.37281,-0.347 30.57468,-14.6092 67.11526,-31.6938 l 66.43741,-31.063 2.2406,2.4177 c 1.23233,1.3297 3.04502,3.7794 4.0282,5.4438 1.66191,2.8134 2.19424,3.0261 7.57198,3.0261 l 5.78439,0 0,-94.5 0,-94.5 -12,0 -12,0 0,-5.3834 c 0,-4.6249 -0.29535,-5.4606 -2.09651,-5.9316 -1.86869,-0.4887 -2.05886,-1.1535 -1.75,-6.1181 0.21248,-3.4155 -0.0403,-5.4421 -0.65349,-5.2394 -1.13319,0.3745 -0.68677,-0.4639 -9.84998,18.4977 -6.25968,12.9533 -7.07875,14.1748 -9.50474,14.1748 -2.13631,0 -93.94035,-15.5986 -103.14528,-17.5256 l -2.5,-0.5234 0.08,-22.2255 0.08,-22.2255 52.42,-9.18675 c 28.831,-5.05271 53.10152,-9.21521 53.93449,-9.25 0.99052,-0.0414 4.44288,5.9047 9.97883,17.18675 l 8.46434,17.25 0.31617,-6.1451 c 0.26278,-5.10769 0.64622,-6.23148 2.27117,-6.65642 1.61721,-0.42291 1.955,-1.39132 1.955,-5.60486 L 335,986 l 12,0 12,0 0,-95 0,-95 -5.45196,0 c -5.30014,0 -5.53448,0.11995 -8.41561,4.30752 -1.63001,2.36913 -3.67204,4.89543 -4.53785,5.61398 -1.34283,1.11446 -11.38628,-3.28291 -68.33439,-29.91912 -36.7181,-17.17409 -66.90587,-31.35856 -67.08393,-31.52106 -0.26107,-0.23827 2.47856,-6.26028 3.29442,-7.24149 0.11897,-0.14309 27.13728,12.34387 60.04068,27.74881 32.9034,15.40493 59.8721,27.897 59.93044,27.76016 0.0583,-0.13684 1.62727,-3.4752 3.48652,-7.41858 l 3.38044,-7.16977 11.59562,-0.44008 c 7.31065,-0.27744 16.03002,-1.4146 23.59562,-3.07727 29.88697,-6.56816 145.22675,-11.11561 221.5,-8.73297 81.37088,2.54188 138.02017,8.01226 183,17.67153 15.09739,3.24212 43.68549,10.69154 55.83393,14.54907 19.09109,6.06206 44.34563,21.20414 57.86798,34.6964 12.79905,12.77057 24.04323,32.60651 26.34948,46.48329 1.53556,9.23949 3.96538,18.96225 7.42316,29.70323 1.86152,5.78251 3.90777,13.65751 4.54721,17.5 0.63944,3.84249 2.2025,9.68635 3.47347,12.98635 4.13881,10.74624 7.12004,31.25473 8.50386,58.5 1.77427,34.9326 -3.00293,84.2724 -9.37245,96.8005 -0.75485,1.4847 -1.90327,5.8495 -2.55205,9.6995 -0.64878,3.85 -2.75117,11.8917 -4.67199,17.8704 -3.21636,10.0112 -5,17.2388 -7.40231,29.9951 -2.08826,11.0888 -5.77621,18.921 -16.07285,34.1345 -10.2127,15.0895 -33.23413,32.66 -55.42744,42.3035 -10.8439,4.712 -42.24941,13.5052 -68.5,19.1793 -55.29298,11.9517 -134.16674,18.0187 -234.21132,18.0159 -81.61625,0 -158.78063,-4.7059 -179.78208,-10.9586 C 359.08523,1254.468 352.51757,1254 346.41179,1254 l -11.10142,0 -3.40518,-7.5067 c -2.38045,-5.2477 -3.85659,-7.3862 -4.90519,-7.106 -0.825,0.2204 -27.49813,12.5984 -59.27363,27.5067 -31.77549,14.9083 -58.23472,27.106 -58.79827,27.106 -0.56356,0 -1.64545,-1.4625 -2.40421,-3.25 z m -0.0833,-646.8649 c -0.88593,-1.7132 -1.23498,-3.43641 -0.77568,-3.82936 2.39785,-2.05143 132.80086,-62.09099 133.92321,-61.6603 0.72773,0.27925 1.9514,2.66702 2.71927,5.30615 l 1.39614,4.79841 7.64824,0.29206 7.64824,0.29207 0,-79.04207 0,-79.04206 -11.9425,0 -11.9425,0 -0.3075,-4.25 c -0.27337,-3.77824 -0.60622,-4.28449 -2.99867,-4.56075 -2.1992,-0.25393 -2.74763,-0.88185 -3,-3.43478 -0.26502,-2.6809 -1.35264,-0.97008 -7.6674,12.06074 C 314.24203,445.05249 313.60733,446 310.96975,446 308.5555,446 224.79534,431.78886 210.5,428.95383 l -5,-0.99159 0.10165,-22.21492 0.10165,-22.21492 52.89835,-9.23608 c 29.09409,-5.07985 53.36492,-9.24964 53.93517,-9.26621 0.57025,-0.0166 4.34908,6.83239 8.39739,15.21989 6.64888,13.77546 7.4193,14.95993 7.96793,12.25 0.4741,-2.34178 1.20969,-3.06943 3.35261,-3.31642 2.47477,-0.28525 2.74525,-0.70398 2.74525,-4.25 L 335,381 l 12,0 12,0 0,-79 0,-79 -8,0 c -6.93641,0 -8.00557,0.23266 -8.04192,1.75 -0.0231,0.9625 -0.81759,3.20377 -1.76565,4.98061 l -1.72373,3.2306 -8.98435,-4.32004 C 325.54296,226.26515 295.625,212.25698 264,197.5119 232.375,182.76681 206.12421,170.37126 205.6649,169.96623 204.68529,169.10237 207.60798,163 209.00133,163 c 0.52248,0 27.92397,12.6 60.8922,28 32.96823,15.4 60.20419,28 60.52435,28 0.32017,0 0.58087,-0.7875 0.57934,-1.75 -0.002,-0.9625 0.98823,-3.62108 2.19945,-5.90795 l 2.20223,-4.15794 11.27098,0.55509 c 8.88134,0.43741 12.17834,0.21844 15.55056,-1.03276 21.07898,-7.82101 162.17934,-12.38101 254.77956,-8.23383 92.36117,4.13647 131.97928,10.14232 204.49348,30.99988 20.33056,5.84776 27.80976,9.13256 44.50652,19.54689 17.17364,10.71178 23,14.86072 23,16.37826 0,0.66551 1.61991,2.7608 3.5998,4.65619 12.3472,11.82027 23.31207,32.2378 28.55976,53.18073 1.13909,4.54599 2.42382,8.71544 2.85496,9.26544 0.43114,0.55 2.38865,6.85 4.35004,14 9.73848,35.50053 12.09016,50.60749 10.52257,67.59587 -1.14977,12.46036 -2.2853,15.95803 -7.51369,23.1438 -2.50526,3.44318 -9.01153,13.14106 -14.45837,21.55084 -5.44684,8.40978 -13.20822,19.65978 -17.24751,25 -8.71504,11.52188 -10.01096,13.78831 -9.34347,16.3408 0.3845,1.47034 -2.00415,4.19152 -10.08194,11.48549 -23.46756,21.1904 -41.92504,32.32347 -75.74215,45.68568 -28.22841,11.15393 -71.56042,24.96879 -94.98634,30.28298 -27.20594,6.1717 -107.92893,16.20602 -160.67138,19.97235 -57.90474,4.13497 -177.97877,2.32712 -187.25421,-2.81932 -1.35444,-0.75151 -6.36935,-1.0543 -14.27351,-0.86182 l -12.18544,0.29675 -2.14392,-4.20244 c -1.33451,-2.61584 -1.918,-5.10259 -1.54551,-6.58671 C 331.76882,592.07292 331.60484,591 331.0753,591 c -0.52955,0 -27.93359,12.6 -60.89787,28 -32.96428,15.4 -60.42804,28 -61.03056,28 -0.60253,0 -1.82036,-1.40171 -2.70628,-3.1149 z"
     id="path2987"
     inkscape:connector-curvature="0"
     sodipodi:nodetypes="ccscssssssssccsssscscscsscssssscsssssssscsccccscscssscccccscscssccccscscssscccccssssccscscssssssssssssssssssccscscssssssscccccccsssssscccscsssscccccscscsssssscscssssssssssssssssssssscssssss" />
</svg>
