<?xml version="1.0" encoding="UTF-8" standalone="no"?>
<!-- Created with Inkscape (http://www.inkscape.org/) -->

<svg
   xmlns:dc="http://purl.org/dc/elements/1.1/"
   xmlns:cc="http://creativecommons.org/ns#"
   xmlns:rdf="http://www.w3.org/1999/02/22-rdf-syntax-ns#"
   xmlns:svg="http://www.w3.org/2000/svg"
   xmlns="http://www.w3.org/2000/svg"
   xmlns:sodipodi="http://sodipodi.sourceforge.net/DTD/sodipodi-0.dtd"
   xmlns:inkscape="http://www.inkscape.org/namespaces/inkscape"
   width="450"
   height="636"
   id="svg2"
   version="1.1"
   inkscape:version="0.48.4 r9939"
   sodipodi:docname="siluethe.svg"
   inkscape:export-filename="D:\work\pioneer\natricinae\Amphiesma\siluethe.png"
   inkscape:export-xdpi="90"
   inkscape:export-ydpi="90">
  <defs
     id="defs4" />
  <sodipodi:namedview
     id="base"
     pagecolor="#ffffff"
     bordercolor="#666666"
     borderopacity="1.0"
     inkscape:pageopacity="1"
     inkscape:pageshadow="2"
     inkscape:zoom="0.7"
     inkscape:cx="281.99768"
     inkscape:cy="365.60317"
     inkscape:document-units="px"
     inkscape:current-layer="layer1"
     showgrid="false"
     fit-margin-top="0"
     fit-margin-left="0"
     fit-margin-right="0"
     fit-margin-bottom="0"
     inkscape:window-width="1862"
     inkscape:window-height="1061"
     inkscape:window-x="1362"
     inkscape:window-y="-4"
     inkscape:window-maximized="1" />
  <metadata
     id="metadata7">
    <rdf:RDF>
      <cc:Work
         rdf:about="">
        <dc:format>image/svg+xml</dc:format>
        <dc:type
           rdf:resource="http://purl.org/dc/dcmitype/StillImage" />
        <dc:title></dc:title>
      </cc:Work>
    </rdf:RDF>
  </metadata>
  <g
     inkscape:label="Layer 1"
     inkscape:groupmode="layer"
     id="layer1"
     transform="translate(-92.142845,-165.79076)">
    <path
       style="fill:#4d4d4d;fill-opacity:1"
       d="m 228.42502,747.44633 c -15.62043,-7.8828 -16.74651,-8.6379 -16.69828,-11.19706 0.0447,-2.37433 3.35911,-5.33892 24.58922,-21.99422 l 24.53752,-19.25 24.37597,0 24.37599,0 3.28478,2.82565 c 1.80664,1.55411 12.8473,10.35343 24.5348,19.55404 16.13974,12.70549 21.24985,17.25647 21.2494,18.92435 -5.1e-4,1.82808 -2.82377,3.66181 -16.85272,10.94596 l -16.85211,8.75 -39.89728,-0.0529 -39.89729,-0.053 -16.75,-8.45283 z m 80.25,-50.44128 c 0,-0.6383 -8.5,-1 -23.5,-1 -15,0 -23.5,0.3617 -23.5,1 0,0.6383 8.5,1 23.5,1 15,0 23.5,-0.3617 23.5,-1 z m -138,-87.55614 c 0,-3.41494 -0.0378,-3.44386 -4.5,-3.44386 l -4.5,0 0,-5.9425 0,-5.9425 4.25,-0.3075 c 3.69312,-0.26721 4.28706,-0.63508 4.53277,-2.8075 0.25852,-2.28558 -0.29898,-2.67316 -6.5,-4.51893 l -6.78277,-2.01893 -0.26216,-10.98107 -0.26216,-10.98107 5.87624,-2.25 c 3.23192,-1.2375 6.3874,-2.25 7.01216,-2.25 1.70596,0 1.59334,-35.93816 -0.11408,-36.40329 -0.6875,-0.18729 -3.85198,-1.10073 -7.03217,-2.02986 l -5.78218,-1.68934 0.28218,-11.16982 0.28217,-11.16983 6.74384,-2.01893 c 6.19743,-1.85535 6.74433,-2.24174 6.75,-4.76893 0.006,-2.59351 -0.24992,-2.75 -4.49384,-2.75 l -4.5,0 0,-6 0,-6 4.5,0 c 4.46222,0 4.5,-0.0289 4.5,-3.44386 l 0,-3.44385 60.64703,-0.0563 60.64704,-0.0563 86.4345,13.00014 c 47.53898,7.15011 89.32281,13.00017 92.85296,13.00017 l 6.41847,0 0,47 0,47 -6.92765,0 c -3.8102,0 -45.79652,5.84987 -93.30291,12.99972 l -86.37527,12.99971 -60.19708,-0.0559 -60.19709,-0.0558 0,-3.44385 z m 0,-276.94386 c 0,-2.59616 -0.42922,-3.5 -1.6621,-3.5 -0.91416,0 -4.06416,-0.75718 -7,-1.68262 l -5.3379,-1.68262 0,-11.1086 0,-11.1086 7,-1.91756 7,-1.91756 0,-12.29122 0,-12.29122 11.93045,0 c 11.61097,0 11.93901,0.0602 12.25,2.25 0.24492,1.7245 1.0786,2.32319 3.56955,2.56336 1.82556,0.17601 3.25,-0.1527 3.25,-0.75 0,-0.73641 14.7927,-1.06336 48.11137,-1.06336 l 48.11137,0 84.4821,17 c 47.1434,9.48648 86.87163,17 89.88863,17 l 5.40653,0 0,4 0,4 -5.63473,0 c -3.09911,0 -43.20034,3.6 -89.11384,8 l -83.47913,8 -48.88615,0 c -31.9241,0 -48.88615,-0.34697 -48.88615,-1 0,-0.55 -1.09844,-1 -2.44098,-1 -1.34254,0 -2.7191,0.45 -3.05902,1 -0.35844,0.57996 -5.84371,1 -13.05901,1 l -12.44099,0 0,-3.5 z"
       id="path2998"
       inkscape:connector-curvature="0" />
    <text
       xml:space="preserve"
       style="font-size:40px;font-style:normal;font-variant:normal;font-weight:normal;font-stretch:normal;text-align:start;line-height:125%;letter-spacing:0px;word-spacing:0px;writing-mode:lr-tb;text-anchor:start;fill:#000000;fill-opacity:1;stroke:none;font-family:TitilliumText25L;-inkscape-font-specification:TitilliumText25L"
       x="212.32838"
       y="218.6479"
       id="text3768"
       sodipodi:linespacing="125%"><tspan
         sodipodi:role="line"
         id="tspan3770"
         x="212.32838"
         y="218.6479">Amphiesma</tspan></text>
  </g>
</svg>
